<svg width="575" height="778" viewBox="0 0 575 778" fill="none" xmlns="http://www.w3.org/2000/svg">
<g style="mix-blend-mode:overlay" opacity="0.6">
<path d="M0 87.2937H143.75V1H233.5V215.509M46.2695 1V673.164H91.8652M462.695 256.315H540.41V151.479H462.695M462.695 256.315V151.479M462.695 256.315V408.567H272.077M462.695 1V151.479M496.237 1V58.5M496.237 58.5H575M496.237 58.5V87.2937H435M91.8652 673.164H137.461V778M91.8652 673.164V778M575 557.987H540.41V673.164H402.5V512M272.077 778V673.164H313.704V778M91.8652 215.509V557.987H143.75V215.509H233.5M200 87.2937V778M272.077 557.987H462.695V710M272.077 408.567V215.509V1H402.5V256.315H313.704M272.077 408.567H233.5V215.509M313.704 87.2937H369.5V151.479M496.237 343.023V557.987M496.237 343.023H575M496.237 343.023V295.5H575M540.41 408.567V470.537H575V408.567H540.41ZM540.41 408.567H517.5V34.5H313.704M272.077 470.537H369.5V778M0 295.5H435V151.479M313.704 215.509V120.5H91.8652V151.479M118.5 151.479V517.5V594H91.8652V630H137.461M233.5 512H313.704V619.5H496.237M402.5 343.023H313.704M369.5 215.509H517.5M462.695 512H402.5M462.695 512V437H369.5M462.695 512H540.41M402.5 512V470.537M402.5 744H462.695M540.41 744H496.237M462.695 744V710M462.695 744H496.237M462.695 710H496.237V744M313.704 373H435V343.023M173 87.2937V34.5H200" stroke="white" stroke-width="2"/>
</g>
</svg>
