<svg width="40" height="1362" viewBox="0 0 40 1362" fill="none" xmlns="http://www.w3.org/2000/svg">
<g style="mix-blend-mode:overlay">
<path d="M0 1214H18" stroke="white" stroke-miterlimit="10"/>
<path d="M0 1207H18" stroke="white" stroke-miterlimit="10"/>
<path d="M0 1200H18" stroke="white" stroke-miterlimit="10"/>
<path d="M0 1193H18" stroke="white" stroke-miterlimit="10"/>
<path d="M0 1178H18" stroke="white" stroke-miterlimit="10"/>
<path d="M0 1171H18" stroke="white" stroke-miterlimit="10"/>
<path d="M0 1164H18" stroke="white" stroke-miterlimit="10"/>
<path d="M0 1157H18" stroke="white" stroke-miterlimit="10"/>
<path d="M0 1186H36" stroke="white" stroke-miterlimit="10"/>
<path d="M0 1150H18" stroke="white" stroke-miterlimit="10"/>
<path d="M0 1143H18" stroke="white" stroke-miterlimit="10"/>
<path d="M0 1136H18" stroke="white" stroke-miterlimit="10"/>
<path d="M0 1129H18" stroke="white" stroke-miterlimit="10"/>
<path d="M0 1115H18" stroke="white" stroke-miterlimit="10"/>
<path d="M0 1106H18" stroke="white" stroke-miterlimit="10"/>
<path d="M0 1099H18" stroke="white" stroke-miterlimit="10"/>
<path d="M0 1092H18" stroke="white" stroke-miterlimit="10"/>
<path d="M0 1122H36" stroke="white" stroke-miterlimit="10"/>
<path d="M0 1085H18" stroke="white" stroke-miterlimit="10"/>
<path d="M0 1078H18" stroke="white" stroke-miterlimit="10"/>
<path d="M0 1071H18" stroke="white" stroke-miterlimit="10"/>
<path d="M0 1064H18" stroke="white" stroke-miterlimit="10"/>
<path d="M0 1050H18" stroke="white" stroke-miterlimit="10"/>
<path d="M0 1043H18" stroke="white" stroke-miterlimit="10"/>
<path d="M0 1035H18" stroke="white" stroke-miterlimit="10"/>
<path d="M0 1028H18" stroke="white" stroke-miterlimit="10"/>
<path d="M0 1057H36" stroke="white" stroke-miterlimit="10"/>
<path d="M0 1021H18" stroke="white" stroke-miterlimit="10"/>
<path d="M0 1014H18" stroke="white" stroke-miterlimit="10"/>
<path d="M0 1007H18" stroke="white" stroke-miterlimit="10"/>
<path d="M0 1000H18" stroke="white" stroke-miterlimit="10"/>
<path d="M0 986H18" stroke="white" stroke-miterlimit="10"/>
<path d="M0 979H18" stroke="white" stroke-miterlimit="10"/>
<path d="M0 972H18" stroke="white" stroke-miterlimit="10"/>
<path d="M0 964H18" stroke="white" stroke-miterlimit="10"/>
<path d="M0 993H36" stroke="white" stroke-miterlimit="10"/>
<path d="M0 957H18" stroke="white" stroke-miterlimit="10"/>
<path d="M0 950H18" stroke="white" stroke-miterlimit="10"/>
<path d="M0 943H18" stroke="white" stroke-miterlimit="10"/>
<path d="M0 936H18" stroke="white" stroke-miterlimit="10"/>
<path d="M0 922H18" stroke="white" stroke-miterlimit="10"/>
<path d="M0 915H18" stroke="white" stroke-miterlimit="10"/>
<path d="M0 907H18" stroke="white" stroke-miterlimit="10"/>
<path d="M0 900H18" stroke="white" stroke-miterlimit="10"/>
<path d="M0 929H36" stroke="white" stroke-miterlimit="10"/>
<path d="M0 892H18" stroke="white" stroke-miterlimit="10"/>
<path d="M0 885H18" stroke="white" stroke-miterlimit="10"/>
<path d="M0 878H18" stroke="white" stroke-miterlimit="10"/>
<path d="M0 871H18" stroke="white" stroke-miterlimit="10"/>
<path d="M0 857H18" stroke="white" stroke-miterlimit="10"/>
<path d="M0 850H18" stroke="white" stroke-miterlimit="10"/>
<path d="M0 843H18" stroke="white" stroke-miterlimit="10"/>
<path d="M0 836H18" stroke="white" stroke-miterlimit="10"/>
<path d="M0 864H36" stroke="white" stroke-miterlimit="10"/>
<path d="M0 829H18" stroke="white" stroke-miterlimit="10"/>
<path d="M0 821H18" stroke="white" stroke-miterlimit="10"/>
<path d="M0 814H18" stroke="white" stroke-miterlimit="10"/>
<path d="M0 807H18" stroke="white" stroke-miterlimit="10"/>
<path d="M0 793H18" stroke="white" stroke-miterlimit="10"/>
<path d="M0 786H18" stroke="white" stroke-miterlimit="10"/>
<path d="M0 779H18" stroke="white" stroke-miterlimit="10"/>
<path d="M0 772H18" stroke="white" stroke-miterlimit="10"/>
<path d="M0 800H36" stroke="white" stroke-miterlimit="10"/>
<path d="M0 765H18" stroke="white" stroke-miterlimit="10"/>
<path d="M0 758H18" stroke="white" stroke-miterlimit="10"/>
<path d="M0 750H18" stroke="white" stroke-miterlimit="10"/>
<path d="M0 743H18" stroke="white" stroke-miterlimit="10"/>
<path d="M0 729H18" stroke="white" stroke-miterlimit="10"/>
<path d="M0 722H18" stroke="white" stroke-miterlimit="10"/>
<path d="M0 715H18" stroke="white" stroke-miterlimit="10"/>
<path d="M0 707H18" stroke="white" stroke-miterlimit="10"/>
<path d="M0 736H36" stroke="white" stroke-miterlimit="10"/>
<path d="M0 700H18" stroke="white" stroke-miterlimit="10"/>
<path d="M0 693H18" stroke="white" stroke-miterlimit="10"/>
<path d="M0 686H18" stroke="white" stroke-miterlimit="10"/>
<path d="M0 678H18" stroke="white" stroke-miterlimit="10"/>
<path d="M0 664H18" stroke="white" stroke-miterlimit="10"/>
<path d="M0 657H18" stroke="white" stroke-miterlimit="10"/>
<path d="M0 650H18" stroke="white" stroke-miterlimit="10"/>
<path d="M0 643H18" stroke="white" stroke-miterlimit="10"/>
<path d="M0 671H36" stroke="white" stroke-miterlimit="10"/>
<path d="M0 636H18" stroke="white" stroke-miterlimit="10"/>
<path d="M0 629H18" stroke="white" stroke-miterlimit="10"/>
<path d="M0 622H18" stroke="white" stroke-miterlimit="10"/>
<path d="M0 615H18" stroke="white" stroke-miterlimit="10"/>
<path d="M0 600H18" stroke="white" stroke-miterlimit="10"/>
<path d="M0 593H18" stroke="white" stroke-miterlimit="10"/>
<path d="M0 586H18" stroke="white" stroke-miterlimit="10"/>
<path d="M0 579H18" stroke="white" stroke-miterlimit="10"/>
<path d="M0 607H36" stroke="white" stroke-miterlimit="10"/>
<path d="M0 572H18" stroke="white" stroke-miterlimit="10"/>
<path d="M0 565H18" stroke="white" stroke-miterlimit="10"/>
<path d="M0 558H18" stroke="white" stroke-miterlimit="10"/>
<path d="M0 551H18" stroke="white" stroke-miterlimit="10"/>
<path d="M0 536H18" stroke="white" stroke-miterlimit="10"/>
<path d="M0 529H18" stroke="white" stroke-miterlimit="10"/>
<path d="M0 522H18" stroke="white" stroke-miterlimit="10"/>
<path d="M0 515H18" stroke="white" stroke-miterlimit="10"/>
<path d="M0 544H36" stroke="white" stroke-miterlimit="10"/>
<path d="M0 508H18" stroke="white" stroke-miterlimit="10"/>
<path d="M0 500H18" stroke="white" stroke-miterlimit="10"/>
<path d="M0 493H18" stroke="white" stroke-miterlimit="10"/>
<path d="M0 486H18" stroke="white" stroke-miterlimit="10"/>
<path d="M0 472H18" stroke="white" stroke-miterlimit="10"/>
<path d="M0 464H18" stroke="white" stroke-miterlimit="10"/>
<path d="M0 457H18" stroke="white" stroke-miterlimit="10"/>
<path d="M0 450H18" stroke="white" stroke-miterlimit="10"/>
<path d="M0 479H36" stroke="white" stroke-miterlimit="10"/>
<path d="M0 443H18" stroke="white" stroke-miterlimit="10"/>
<path d="M0 436H18" stroke="white" stroke-miterlimit="10"/>
<path d="M0 429H18" stroke="white" stroke-miterlimit="10"/>
<path d="M0 422H18" stroke="white" stroke-miterlimit="10"/>
<path d="M0 408H18" stroke="white" stroke-miterlimit="10"/>
<path d="M0 401H18" stroke="white" stroke-miterlimit="10"/>
<path d="M0 393H18" stroke="white" stroke-miterlimit="10"/>
<path d="M0 386H18" stroke="white" stroke-miterlimit="10"/>
<path d="M0 415H36" stroke="white" stroke-miterlimit="10"/>
<path d="M0 379H18" stroke="white" stroke-miterlimit="10"/>
<path d="M0 372H18" stroke="white" stroke-miterlimit="10"/>
<path d="M0 365H18" stroke="white" stroke-miterlimit="10"/>
<path d="M0 358H18" stroke="white" stroke-miterlimit="10"/>
<path d="M0 344H18" stroke="white" stroke-miterlimit="10"/>
<path d="M0 337H18" stroke="white" stroke-miterlimit="10"/>
<path d="M0 330H18" stroke="white" stroke-miterlimit="10"/>
<path d="M0 322H18" stroke="white" stroke-miterlimit="10"/>
<path d="M0 351H36" stroke="white" stroke-miterlimit="10"/>
<path d="M0 315H18" stroke="white" stroke-miterlimit="10"/>
<path d="M0 308H18" stroke="white" stroke-miterlimit="10"/>
<path d="M0 300H18" stroke="white" stroke-miterlimit="10"/>
<path d="M0 293H18" stroke="white" stroke-miterlimit="10"/>
<path d="M0 279H18" stroke="white" stroke-miterlimit="10"/>
<path d="M0 272H18" stroke="white" stroke-miterlimit="10"/>
<path d="M0 265H18" stroke="white" stroke-miterlimit="10"/>
<path d="M0 258H18" stroke="white" stroke-miterlimit="10"/>
<path d="M0 286H36" stroke="white" stroke-miterlimit="10"/>
<path d="M0 250H18" stroke="white" stroke-miterlimit="10"/>
<path d="M0 243H18" stroke="white" stroke-miterlimit="10"/>
<path d="M0 236H18" stroke="white" stroke-miterlimit="10"/>
<path d="M0 229H18" stroke="white" stroke-miterlimit="10"/>
<path d="M0 215H18" stroke="white" stroke-miterlimit="10"/>
<path d="M0 208H18" stroke="white" stroke-miterlimit="10"/>
<path d="M0 201H18" stroke="white" stroke-miterlimit="10"/>
<path d="M0 194H18" stroke="white" stroke-miterlimit="10"/>
<path d="M0 222H36" stroke="white" stroke-miterlimit="10"/>
<path d="M0 187H18" stroke="white" stroke-miterlimit="10"/>
<path d="M0 179H18" stroke="white" stroke-miterlimit="10"/>
<path d="M0 172H18" stroke="white" stroke-miterlimit="10"/>
<path d="M0 165H18" stroke="white" stroke-miterlimit="10"/>
<path d="M0 151H18" stroke="white" stroke-miterlimit="10"/>
<path d="M0 144H18" stroke="white" stroke-miterlimit="10"/>
<path d="M0 137H18" stroke="white" stroke-miterlimit="10"/>
<path d="M0 130H18" stroke="white" stroke-miterlimit="10"/>
<path d="M0 158H36" stroke="white" stroke-miterlimit="10"/>
<path d="M0 123H18" stroke="white" stroke-miterlimit="10"/>
<path d="M0 116H18" stroke="white" stroke-miterlimit="10"/>
<path d="M0 108H18" stroke="white" stroke-miterlimit="10"/>
<path d="M0 100H18" stroke="white" stroke-miterlimit="10"/>
<path d="M0 86H18" stroke="white" stroke-miterlimit="10"/>
<path d="M0 79H18" stroke="white" stroke-miterlimit="10"/>
<path d="M0 72H18" stroke="white" stroke-miterlimit="10"/>
<path d="M0 65H18" stroke="white" stroke-miterlimit="10"/>
<path d="M0 93H36" stroke="white" stroke-miterlimit="10"/>
<path d="M0 58H18" stroke="white" stroke-miterlimit="10"/>
<path d="M0 51H18" stroke="white" stroke-miterlimit="10"/>
<path d="M0 44H18" stroke="white" stroke-miterlimit="10"/>
<path d="M0 36H18" stroke="white" stroke-miterlimit="10"/>
<path d="M0 22H18" stroke="white" stroke-miterlimit="10"/>
<path d="M0 15H18" stroke="white" stroke-miterlimit="10"/>
<path d="M0 8H18" stroke="white" stroke-miterlimit="10"/>
<path d="M0 1H18" stroke="white" stroke-miterlimit="10"/>
<path d="M0 29H36" stroke="white" stroke-miterlimit="10"/>
</g>
</svg>
