<svg width="24" height="24" viewBox="0 0 24 24" fill="none" xmlns="http://www.w3.org/2000/svg">
<path d="M16.8177 8.50168L10.4455 13.7108C10.3825 13.7607 10.3415 13.833 10.3309 13.9126L10.2668 14.4417L10.0909 15.9281C10.0925 15.9461 10.0869 15.9641 10.0753 15.9781C10.0636 15.992 10.0469 16.0007 10.0289 16.0024C10.0108 16.004 9.99279 15.9984 9.97886 15.9867C9.96492 15.9751 9.95617 15.9584 9.95455 15.9403L9.45955 14.454L8.94818 12.9335C8.92637 12.8654 8.92916 12.7917 8.95607 12.7254C8.98299 12.6592 9.03232 12.6044 9.09546 12.5708L16.62 8.25896C16.7932 8.15805 16.9704 8.37623 16.8177 8.50168Z" fill="white"/>
<path d="M12 0C9.62663 0 7.30655 0.703788 5.33316 2.02236C3.35977 3.34094 1.8217 5.21508 0.913451 7.4078C0.00519947 9.60051 -0.232441 12.0133 0.230582 14.3411C0.693604 16.6689 1.83649 18.807 3.51472 20.4853C5.19295 22.1635 7.33115 23.3064 9.65892 23.7694C11.9867 24.2324 14.3995 23.9948 16.5922 23.0865C18.7849 22.1783 20.6591 20.6402 21.9776 18.6668C23.2962 16.6935 24 14.3734 24 12C24 8.8174 22.7357 5.76515 20.4853 3.51472C18.2348 1.26428 15.1826 0 12 0ZM19.485 6.94636L17.1423 17.2977C17.0318 17.7832 16.4155 18.0027 15.9832 17.7068L12.4459 15.3068L10.6445 17.01C10.5711 17.0789 10.4819 17.1289 10.3848 17.1555C10.2877 17.1822 10.1855 17.1848 10.0872 17.163C9.9888 17.1412 9.89725 17.0958 9.82044 17.0306C9.74363 16.9655 9.68388 16.8826 9.64637 16.7891L8.34546 12.9709L4.85864 12.0164C4.76115 11.9951 4.67342 11.9422 4.6091 11.8659C4.54477 11.7896 4.50745 11.6942 4.50294 11.5945C4.49843 11.4948 4.52698 11.3964 4.58416 11.3147C4.64133 11.2329 4.72392 11.1723 4.81909 11.1423L18.2891 6.28909L18.5373 6.20045C19.0595 6.01773 19.5995 6.44045 19.485 6.94636Z" fill="white"/>
</svg>
