<?xml version="1.0" standalone="no"?>
<!DOCTYPE svg PUBLIC "-//W3C//DTD SVG 20010904//EN"
 "http://www.w3.org/TR/2001/REC-SVG-20010904/DTD/svg10.dtd">
<svg version="1.0" xmlns="http://www.w3.org/2000/svg"
 width="70.000000pt" height="70.000000pt" viewBox="0 0 70.000000 70.000000"
 preserveAspectRatio="xMidYMid meet">
<metadata>
Created by potrace 1.14, written by Peter Selinger 2001-2017
</metadata>
<g transform="translate(0.000000,70.000000) scale(0.100000,-0.100000)"
fill="#000000" stroke="none">
<path d="M255 686 c-146 -46 -242 -163 -253 -307 -11 -153 66 -282 208 -348
46 -21 69 -25 141 -25 74 0 94 4 144 29 76 37 140 101 173 173 21 47 26 72 26
142 1 77 -2 92 -32 152 -58 118 -165 188 -296 194 -39 1 -89 -3 -111 -10z"/>
</g>
</svg>
