<svg width="1437" height="391" viewBox="0 0 1437 391" fill="none" xmlns="http://www.w3.org/2000/svg">
<g filter="url(#filter0_d_636_2694)">
<path d="M982.826 18.8261C993.223 8.42873 1010.08 8.42873 1020.48 18.8261V18.8261C1030.88 29.2234 1030.88 46.0809 1020.48 56.4783L1001.65 75.3043L982.826 56.4783C972.429 46.0809 972.429 29.2234 982.826 18.8261V18.8261Z" fill="#EB5757"/>
</g>
<path d="M998.833 34.9676V32.6456H1003.17V45.7676H1000.58V34.9676H998.833Z" fill="white"/>
<g filter="url(#filter1_d_636_2694)">
<path d="M1181.83 160.826C1192.22 150.429 1209.08 150.429 1219.48 160.826V160.826C1229.88 171.223 1229.88 188.081 1219.48 198.478L1200.65 217.304L1181.83 198.478C1171.43 188.081 1171.43 171.223 1181.83 160.826V160.826Z" fill="#EB5757"/>
</g>
<path d="M1197.02 184.924C1198.18 183.964 1199.09 183.166 1199.78 182.53C1200.46 181.882 1201.03 181.21 1201.49 180.514C1201.94 179.818 1202.17 179.134 1202.17 178.462C1202.17 177.85 1202.03 177.37 1201.74 177.022C1201.45 176.674 1201.01 176.5 1200.41 176.5C1199.81 176.5 1199.35 176.704 1199.02 177.112C1198.7 177.508 1198.53 178.054 1198.52 178.75H1196.07C1196.12 177.31 1196.54 176.218 1197.35 175.474C1198.16 174.73 1199.2 174.358 1200.44 174.358C1201.81 174.358 1202.86 174.724 1203.59 175.456C1204.33 176.176 1204.69 177.13 1204.69 178.318C1204.69 179.254 1204.44 180.148 1203.94 181C1203.43 181.852 1202.86 182.596 1202.21 183.232C1201.56 183.856 1200.71 184.612 1199.67 185.5H1204.98V187.588H1196.09V185.716L1197.02 184.924Z" fill="white"/>
<g filter="url(#filter2_d_636_2694)">
<path d="M23.8261 64.8261C34.2234 54.4287 51.0809 54.4287 61.4783 64.8261V64.8261C71.8756 75.2234 71.8756 92.0809 61.4783 102.478L42.6522 121.304L23.8261 102.478C13.4287 92.0809 13.4287 75.2234 23.8261 64.8261V64.8261Z" fill="#EB5757"/>
</g>
<path d="M43.9465 81.9216C43.8265 81.4176 43.6165 81.0396 43.3165 80.7876C43.0285 80.5356 42.6085 80.4096 42.0565 80.4096C41.2285 80.4096 40.6165 80.7456 40.2205 81.4176C39.8365 82.0776 39.6385 83.1576 39.6265 84.6576C39.9145 84.1776 40.3345 83.8056 40.8865 83.5416C41.4385 83.2656 42.0385 83.1276 42.6865 83.1276C43.4665 83.1276 44.1565 83.2956 44.7565 83.6316C45.3565 83.9676 45.8245 84.4596 46.1605 85.1076C46.4965 85.7436 46.6645 86.5116 46.6645 87.4116C46.6645 88.2636 46.4905 89.0256 46.1425 89.6976C45.8065 90.3576 45.3085 90.8736 44.6485 91.2456C43.9885 91.6176 43.2025 91.8036 42.2905 91.8036C41.0425 91.8036 40.0585 91.5276 39.3385 90.9756C38.6305 90.4236 38.1325 89.6556 37.8445 88.6716C37.5685 87.6756 37.4305 86.4516 37.4305 84.9996C37.4305 82.8036 37.8085 81.1476 38.5645 80.0316C39.3205 78.9036 40.5145 78.3396 42.1465 78.3396C43.4065 78.3396 44.3845 78.6816 45.0805 79.3656C45.7765 80.0496 46.1785 80.9016 46.2865 81.9216H43.9465ZM42.1105 85.1976C41.4745 85.1976 40.9405 85.3836 40.5085 85.7556C40.0765 86.1276 39.8605 86.6676 39.8605 87.3756C39.8605 88.0836 40.0585 88.6416 40.4545 89.0496C40.8625 89.4576 41.4325 89.6616 42.1645 89.6616C42.8125 89.6616 43.3225 89.4636 43.6945 89.0676C44.0785 88.6716 44.2705 88.1376 44.2705 87.4656C44.2705 86.7696 44.0845 86.2176 43.7125 85.8096C43.3525 85.4016 42.8185 85.1976 42.1105 85.1976Z" fill="white"/>
<g filter="url(#filter3_d_636_2694)">
<path d="M615.826 18.8261C626.223 8.42873 643.081 8.42873 653.478 18.8261V18.8261C663.876 29.2234 663.876 46.0809 653.478 56.4783L634.652 75.3043L615.826 56.4783C605.429 46.0809 605.429 29.2234 615.826 18.8261V18.8261Z" fill="#EB5757"/>
</g>
<path d="M637.927 34.8236H632.095V37.9016C632.347 37.5896 632.707 37.3376 633.175 37.1456C633.643 36.9416 634.141 36.8396 634.669 36.8396C635.629 36.8396 636.415 37.0496 637.027 37.4696C637.639 37.8896 638.083 38.4296 638.359 39.0896C638.635 39.7376 638.773 40.4336 638.773 41.1776C638.773 42.5576 638.377 43.6676 637.585 44.5076C636.805 45.3476 635.689 45.7676 634.237 45.7676C632.869 45.7676 631.777 45.4256 630.961 44.7416C630.145 44.0576 629.683 43.1636 629.575 42.0596H632.023C632.131 42.5396 632.371 42.9236 632.743 43.2116C633.127 43.4996 633.613 43.6436 634.201 43.6436C634.909 43.6436 635.443 43.4216 635.803 42.9776C636.163 42.5336 636.343 41.9456 636.343 41.2136C636.343 40.4696 636.157 39.9056 635.785 39.5216C635.425 39.1256 634.891 38.9276 634.183 38.9276C633.679 38.9276 633.259 39.0536 632.923 39.3056C632.587 39.5576 632.347 39.8936 632.203 40.3136H629.791V32.6096H637.927V34.8236Z" fill="white"/>
<g filter="url(#filter4_d_636_2694)">
<path d="M1374.83 65.8261C1385.22 55.4287 1402.08 55.4287 1412.48 65.8261V65.8261C1422.88 76.2234 1422.88 93.0809 1412.48 103.478L1393.65 122.304L1374.83 103.478C1364.43 93.0809 1364.43 76.2234 1374.83 65.8261V65.8261Z" fill="#EB5757"/>
</g>
<path d="M1389.05 83.1016C1389.11 81.9016 1389.53 80.9776 1390.31 80.3296C1391.1 79.6696 1392.14 79.3396 1393.42 79.3396C1394.3 79.3396 1395.05 79.4956 1395.67 79.8076C1396.3 80.1076 1396.76 80.5216 1397.08 81.0496C1397.4 81.5656 1397.56 82.1536 1397.56 82.8136C1397.56 83.5696 1397.36 84.2116 1396.97 84.7396C1396.58 85.2556 1396.12 85.6036 1395.58 85.7836V85.8556C1396.28 86.0716 1396.82 86.4556 1397.2 87.0076C1397.6 87.5596 1397.8 88.2676 1397.8 89.1316C1397.8 89.8516 1397.63 90.4936 1397.29 91.0576C1396.97 91.6216 1396.48 92.0656 1395.83 92.3896C1395.2 92.7016 1394.43 92.8576 1393.53 92.8576C1392.17 92.8576 1391.07 92.5156 1390.22 91.8316C1389.37 91.1476 1388.92 90.1396 1388.87 88.8076H1391.32C1391.34 89.3956 1391.54 89.8696 1391.91 90.2296C1392.29 90.5776 1392.82 90.7516 1393.48 90.7516C1394.09 90.7516 1394.56 90.5836 1394.88 90.2476C1395.22 89.8996 1395.38 89.4556 1395.38 88.9156C1395.38 88.1956 1395.16 87.6796 1394.7 87.3676C1394.24 87.0556 1393.54 86.8996 1392.58 86.8996H1392.05V84.8296H1392.58C1394.28 84.8296 1395.13 84.2596 1395.13 83.1196C1395.13 82.6036 1394.98 82.2016 1394.66 81.9136C1394.36 81.6256 1393.93 81.4816 1393.35 81.4816C1392.79 81.4816 1392.35 81.6376 1392.04 81.9496C1391.74 82.2496 1391.56 82.6336 1391.51 83.1016H1389.05Z" fill="white"/>
<g filter="url(#filter5_d_636_2694)">
<path d="M955.826 309.826C966.223 299.429 983.081 299.429 993.478 309.826V309.826C1003.88 320.223 1003.88 337.081 993.478 347.478L974.652 366.304L955.826 347.478C945.429 337.081 945.429 320.223 955.826 309.826V309.826Z" fill="#EB5757"/>
</g>
<path d="M968.841 334.212V332.232L974.727 323.808H977.661V332.016H979.245V334.212H977.661V336.768H975.141V334.212H968.841ZM975.303 326.508L971.613 332.016H975.303V326.508Z" fill="white"/>
<defs>
<filter id="filter0_d_636_2694" x="959.028" y="3.02808" width="85.2485" height="96.2764" filterUnits="userSpaceOnUse" color-interpolation-filters="sRGB">
<feFlood flood-opacity="0" result="BackgroundImageFix"/>
<feColorMatrix in="SourceAlpha" type="matrix" values="0 0 0 0 0 0 0 0 0 0 0 0 0 0 0 0 0 0 127 0" result="hardAlpha"/>
<feOffset dy="8"/>
<feGaussianBlur stdDeviation="8"/>
<feComposite in2="hardAlpha" operator="out"/>
<feColorMatrix type="matrix" values="0 0 0 0 0.0901961 0 0 0 0 0.101961 0 0 0 0 0.109804 0 0 0 0.08 0"/>
<feBlend mode="normal" in2="BackgroundImageFix" result="effect1_dropShadow_636_2694"/>
<feBlend mode="normal" in="SourceGraphic" in2="effect1_dropShadow_636_2694" result="shape"/>
</filter>
<filter id="filter1_d_636_2694" x="1158.03" y="145.028" width="85.2485" height="96.2764" filterUnits="userSpaceOnUse" color-interpolation-filters="sRGB">
<feFlood flood-opacity="0" result="BackgroundImageFix"/>
<feColorMatrix in="SourceAlpha" type="matrix" values="0 0 0 0 0 0 0 0 0 0 0 0 0 0 0 0 0 0 127 0" result="hardAlpha"/>
<feOffset dy="8"/>
<feGaussianBlur stdDeviation="8"/>
<feComposite in2="hardAlpha" operator="out"/>
<feColorMatrix type="matrix" values="0 0 0 0 0.0901961 0 0 0 0 0.101961 0 0 0 0 0.109804 0 0 0 0.08 0"/>
<feBlend mode="normal" in2="BackgroundImageFix" result="effect1_dropShadow_636_2694"/>
<feBlend mode="normal" in="SourceGraphic" in2="effect1_dropShadow_636_2694" result="shape"/>
</filter>
<filter id="filter2_d_636_2694" x="0.027832" y="49.0281" width="85.2485" height="96.2764" filterUnits="userSpaceOnUse" color-interpolation-filters="sRGB">
<feFlood flood-opacity="0" result="BackgroundImageFix"/>
<feColorMatrix in="SourceAlpha" type="matrix" values="0 0 0 0 0 0 0 0 0 0 0 0 0 0 0 0 0 0 127 0" result="hardAlpha"/>
<feOffset dy="8"/>
<feGaussianBlur stdDeviation="8"/>
<feComposite in2="hardAlpha" operator="out"/>
<feColorMatrix type="matrix" values="0 0 0 0 0.0901961 0 0 0 0 0.101961 0 0 0 0 0.109804 0 0 0 0.08 0"/>
<feBlend mode="normal" in2="BackgroundImageFix" result="effect1_dropShadow_636_2694"/>
<feBlend mode="normal" in="SourceGraphic" in2="effect1_dropShadow_636_2694" result="shape"/>
</filter>
<filter id="filter3_d_636_2694" x="592.028" y="3.02808" width="85.2485" height="96.2764" filterUnits="userSpaceOnUse" color-interpolation-filters="sRGB">
<feFlood flood-opacity="0" result="BackgroundImageFix"/>
<feColorMatrix in="SourceAlpha" type="matrix" values="0 0 0 0 0 0 0 0 0 0 0 0 0 0 0 0 0 0 127 0" result="hardAlpha"/>
<feOffset dy="8"/>
<feGaussianBlur stdDeviation="8"/>
<feComposite in2="hardAlpha" operator="out"/>
<feColorMatrix type="matrix" values="0 0 0 0 0.0901961 0 0 0 0 0.101961 0 0 0 0 0.109804 0 0 0 0.08 0"/>
<feBlend mode="normal" in2="BackgroundImageFix" result="effect1_dropShadow_636_2694"/>
<feBlend mode="normal" in="SourceGraphic" in2="effect1_dropShadow_636_2694" result="shape"/>
</filter>
<filter id="filter4_d_636_2694" x="1351.03" y="50.0281" width="85.2485" height="96.2764" filterUnits="userSpaceOnUse" color-interpolation-filters="sRGB">
<feFlood flood-opacity="0" result="BackgroundImageFix"/>
<feColorMatrix in="SourceAlpha" type="matrix" values="0 0 0 0 0 0 0 0 0 0 0 0 0 0 0 0 0 0 127 0" result="hardAlpha"/>
<feOffset dy="8"/>
<feGaussianBlur stdDeviation="8"/>
<feComposite in2="hardAlpha" operator="out"/>
<feColorMatrix type="matrix" values="0 0 0 0 0.0901961 0 0 0 0 0.101961 0 0 0 0 0.109804 0 0 0 0.08 0"/>
<feBlend mode="normal" in2="BackgroundImageFix" result="effect1_dropShadow_636_2694"/>
<feBlend mode="normal" in="SourceGraphic" in2="effect1_dropShadow_636_2694" result="shape"/>
</filter>
<filter id="filter5_d_636_2694" x="932.028" y="294.028" width="85.2485" height="96.2764" filterUnits="userSpaceOnUse" color-interpolation-filters="sRGB">
<feFlood flood-opacity="0" result="BackgroundImageFix"/>
<feColorMatrix in="SourceAlpha" type="matrix" values="0 0 0 0 0 0 0 0 0 0 0 0 0 0 0 0 0 0 127 0" result="hardAlpha"/>
<feOffset dy="8"/>
<feGaussianBlur stdDeviation="8"/>
<feComposite in2="hardAlpha" operator="out"/>
<feColorMatrix type="matrix" values="0 0 0 0 0.0901961 0 0 0 0 0.101961 0 0 0 0 0.109804 0 0 0 0.08 0"/>
<feBlend mode="normal" in2="BackgroundImageFix" result="effect1_dropShadow_636_2694"/>
<feBlend mode="normal" in="SourceGraphic" in2="effect1_dropShadow_636_2694" result="shape"/>
</filter>
</defs>
</svg>
