<svg width="32" height="32" viewBox="0 0 32 32" fill="none" xmlns="http://www.w3.org/2000/svg">
<path d="M9.33333 1H4.33333C3.44928 1 2.60143 1.35119 1.97631 1.97631C1.35119 2.60143 1 3.44928 1 4.33333V9.33333M31 9.33333V4.33333C31 3.44928 30.6488 2.60143 30.0237 1.97631C29.3986 1.35119 28.5507 1 27.6667 1H22.6667M22.6667 31H27.6667C28.5507 31 29.3986 30.6488 30.0237 30.0237C30.6488 29.3986 31 28.5507 31 27.6667V22.6667M1 22.6667V27.6667C1 28.5507 1.35119 29.3986 1.97631 30.0237C2.60143 30.6488 3.44928 31 4.33333 31H9.33333" stroke="white" stroke-width="2" stroke-linecap="square" stroke-linejoin="round"/>
</svg>
