<svg width="24" height="24" viewBox="0 0 24 24" fill="none" xmlns="http://www.w3.org/2000/svg">
<path d="M11.9933 24C8.71516 24 8.32871 23.9827 7.04942 23.9268C6.0518 23.8941 5.0671 23.6915 4.1377 23.328C2.52968 22.7031 1.25815 21.433 0.632982 19.827C0.282918 18.8956 0.0941049 17.9115 0.0746252 16.9168C0 15.642 0 15.2242 0 11.976C0 8.69328 0.0173237 8.31005 0.0746252 7.03925C0.094531 6.04594 0.283338 5.06322 0.632982 4.13307C1.25748 2.52499 2.53106 1.25372 4.1417 0.630738C5.07271 0.27971 6.0571 0.0906777 7.05208 0.0718563C8.32471 0 8.74314 0 11.9933 0C15.2982 0 15.678 0.0172987 16.9373 0.0718563C17.9348 0.0908405 18.9218 0.279853 19.8556 0.630738C21.4658 1.25443 22.7391 2.52545 23.3644 4.13307C23.7203 5.07677 23.9101 6.07485 23.9254 7.08317C24 8.35795 24 8.77445 24 12.0213C24 15.2681 23.9813 15.6939 23.9254 16.9541C23.9055 17.9497 23.7163 18.9347 23.3657 19.8669C22.7389 21.474 21.4655 22.7446 19.8556 23.3693C18.9231 23.7181 17.9382 23.9067 16.9426 23.9268C15.67 24 15.2529 24 11.9933 24ZM11.948 2.10645C8.68851 2.10645 8.35003 2.12242 7.0774 2.17964C6.3178 2.18969 5.56555 2.32966 4.8533 2.59348C3.80156 2.99535 2.96932 3.82301 2.56258 4.87159C2.29634 5.59055 2.15615 6.34994 2.14814 7.11643C2.07751 8.40585 2.07751 8.74384 2.07751 11.976C2.07751 15.1697 2.08951 15.5569 2.14814 16.8383C2.16007 17.5971 2.30018 18.3484 2.56258 19.0605C2.96992 20.1084 3.80201 20.9355 4.8533 21.3373C5.56506 21.6029 6.31762 21.7429 7.0774 21.7512C8.36735 21.8257 8.70716 21.8257 11.948 21.8257C15.2169 21.8257 15.5554 21.8097 16.8173 21.7512C17.5774 21.7419 18.3303 21.6019 19.0428 21.3373C20.0881 20.932 20.9149 20.1068 21.3215 19.0632C21.5872 18.3436 21.7274 17.5839 21.7359 16.817H21.7506C21.8079 15.5449 21.8079 15.2056 21.8079 11.9548C21.8079 8.70393 21.7932 8.36194 21.7359 7.09115C21.724 6.33327 21.5839 5.58285 21.3215 4.87159C20.9159 3.82644 20.0889 2.99972 19.0428 2.59348C18.3304 2.32833 17.5775 2.18832 16.8173 2.17964C15.5287 2.10645 15.1916 2.10645 11.948 2.10645ZM11.9933 18.1224C9.50137 18.124 7.25386 16.6264 6.29898 14.328C5.34411 12.0295 5.86995 9.38301 7.63127 7.6227C9.39259 5.8624 12.0425 5.33502 14.345 6.28654C16.6476 7.23805 18.1494 9.48102 18.1499 11.9694C18.1462 15.364 15.3929 18.1158 11.9933 18.1224ZM11.9933 7.97472C9.78542 7.97472 7.99556 9.762 7.99556 11.9667C7.99556 14.1715 9.78542 15.9587 11.9933 15.9587C14.2012 15.9587 15.9911 14.1715 15.9911 11.9667C15.986 9.76413 14.1991 7.97984 11.9933 7.97472ZM18.3898 7.02595C17.5975 7.02301 16.9571 6.38002 16.9586 5.58883C16.9601 4.79764 17.6028 4.15703 18.3951 4.15703C19.1874 4.15703 19.8302 4.79763 19.8316 5.58882C19.832 5.97054 19.6801 6.33669 19.4096 6.60636C19.139 6.87602 18.7721 7.02701 18.3898 7.02595Z" fill="white"/>
</svg>
