<svg width="22" height="24" viewBox="0 0 22 24" fill="none" xmlns="http://www.w3.org/2000/svg">
<path d="M13.4444 0H8.55556C3.85 0 0 3.77843 0 8.3965V11.995C0 15.2337 1.925 18.2024 4.88889 19.5818V23.6002C4.88889 23.96 5.34722 24.1399 5.59167 23.8701L9.13611 20.3915H13.4444C18.15 20.3915 22 16.6131 22 11.995V8.3965C22 3.77843 18.15 0 13.4444 0ZM16.6528 15.7434L15.4 16.9429C14.0861 18.2024 10.6944 16.763 7.7 13.7643C4.70556 10.7655 3.39167 7.40691 4.64444 6.14744L5.86667 4.94794C6.325 4.49813 7.08889 4.52811 7.60833 4.97793L9.38056 6.77718C10.0222 7.40691 9.74722 8.48646 8.92222 8.72636C8.34167 8.90629 7.94444 9.53603 8.12778 10.1058C8.43333 11.4252 10.1444 13.1045 11.4278 13.4344C12.0083 13.5544 12.65 13.2545 12.8639 12.6847C13.1389 11.8751 14.2389 11.6352 14.85 12.2649L16.6222 14.0641C17.1111 14.484 17.1111 15.2337 16.6528 15.7434ZM12.1 5.69763C11.9778 5.69763 11.8556 5.69763 11.7333 5.72761C11.5194 5.7576 11.3056 5.57768 11.275 5.36776C11.2444 5.15785 11.4278 4.94794 11.6417 4.91795C11.7944 4.88796 11.9472 4.88796 12.1 4.88796C14.3306 4.88796 16.1639 6.68721 16.1639 8.8763C16.1639 9.02624 16.1639 9.17618 16.1333 9.32611C16.1028 9.53603 15.8889 9.71595 15.675 9.68596C15.4611 9.65598 15.2778 9.44606 15.3083 9.23615C15.3083 9.1162 15.3389 8.99625 15.3389 8.8763C15.3694 7.13703 13.9028 5.69763 12.1 5.69763ZM14.5444 8.90629C14.5444 9.1162 14.3611 9.29613 14.1472 9.29613C13.9333 9.29613 13.75 9.1162 13.75 8.90629C13.75 8.03665 13.0167 7.31695 12.1306 7.31695C11.9167 7.31695 11.7333 7.13703 11.7333 6.92711C11.7333 6.7172 11.9167 6.53728 12.1306 6.53728C13.4444 6.50729 14.5444 7.58684 14.5444 8.90629ZM17.6611 10.1958C17.6 10.4057 17.3861 10.5556 17.1417 10.4956C16.9278 10.4357 16.8056 10.2257 16.8667 10.0158C16.9583 9.65598 16.9889 9.29613 16.9889 8.90629C16.9889 6.26739 14.7889 4.10829 12.1 4.10829C11.9778 4.10829 11.8556 4.10829 11.7333 4.10829C11.5194 4.10829 11.3056 3.95835 11.3056 3.74844C11.3056 3.53853 11.4583 3.32861 11.6722 3.32861C11.825 3.32861 11.9778 3.29863 12.1 3.29863C15.2472 3.29863 17.8139 5.81758 17.8139 8.90629C17.8139 9.32611 17.7528 9.77593 17.6611 10.1958Z" fill="white"/>
</svg>
